<?xml version="1.0" encoding="UTF-8" standalone="no"?>
<svg
   width="24"
   height="24"
   viewBox="0 0 24 24"
   fill="none"
   stroke="currentColor"
   stroke-width="2"
   stroke-linecap="round"
   stroke-linejoin="round"
   class="icon icon-tabler icons-tabler-outline icon-tabler-brand-pinterest"
   version="1.1"
   id="svg4"
   xmlns="http://www.w3.org/2000/svg"
   xmlns:svg="http://www.w3.org/2000/svg">
  <defs
     id="defs4" />
  <path
     stroke="none"
     d="M 0,0 H 24 V 24 H 0 Z"
     fill="none"
     id="path1"
     style="display:inline" />
  <path
     id="path2"
     style="baseline-shift:baseline;display:inline;overflow:visible;vector-effect:none;fill:#000000;stroke:none;stroke-linecap:butt;stroke-linejoin:miter;enable-background:accumulate;stop-color:#000000;stop-opacity:1;opacity:1;fill-opacity:0.15000001"
     d="M 12 2 C 6.4889982 2 2 6.4889941 2 12 C 2 17.511006 6.4889982 22 12 22 C 17.511002 22 22 17.511006 22 12 C 22 6.4889941 17.511002 2 12 2 z M 12 4 C 16.430123 4 20 7.5698737 20 12 C 20 16.430126 16.430123 20 12 20 C 11.052016 20 10.143434 19.837488 9.3007812 19.537109 L 10.857422 16.033203 C 11.513435 16.640982 12.35288 17 13.25 17 C 15.820637 17 17.998977 14.904509 18 12.001953 C 18.004351 8.2910008 14.620078 5.4433763 10.964844 6.0839844 C 7.3096092 6.7245924 5.0932991 10.552715 6.359375 14.041016 A 1 1 0 0 0 7.640625 14.640625 A 1 1 0 0 0 8.2402344 13.359375 C 7.3849001 11.002753 8.8391943 8.4874688 11.308594 8.0546875 C 13.777993 7.6219062 16.00294 9.4910055 16 11.998047 A 1.0001 1.0001 0 0 0 16 12 C 16 13.988382 14.820759 15 13.25 15 C 12.648777 15 12.109979 14.69421 11.769531 13.980469 L 12.914062 11.40625 A 1 1 0 0 0 12.40625 10.085938 A 1 1 0 0 0 11.640625 10.066406 A 1 1 0 0 0 11.085938 10.59375 L 7.5136719 18.630859 C 5.3908669 17.194914 4 14.76526 4 12 C 4 7.5698737 7.5698765 4 12 4 z " />
</svg>
