<?xml version="1.0" encoding="UTF-8" standalone="no"?>
<svg
   width="24"
   height="24"
   viewBox="0 0 24 24"
   fill="currentColor"
   class="icon icon-tabler icons-tabler-filled icon-tabler-brand-tumblr"
   version="1.1"
   id="svg2"
   xmlns="http://www.w3.org/2000/svg"
   xmlns:svg="http://www.w3.org/2000/svg">
  <defs
     id="defs2" />
  <path
     stroke="none"
     d="M0 0h24v24H0z"
     fill="none"
     id="path1" />
  <path
     d="M14 2a1 1 0 0 1 1 1v3h3a1 1 0 0 1 .993 .883l.007 .117v4a1 1 0 0 1 -1 1h-3v4h3a1 1 0 0 1 .993 .883l.007 .117v4a1 1 0 0 1 -1 1h-4a5 5 0 0 1 -5 -5v-5h-3a1 1 0 0 1 -.993 -.883l-.007 -.117v-4a1 1 0 0 1 1 -1h1a2 2 0 0 0 2 -2v-1a1 1 0 0 1 1 -1z"
     id="path2"
     style="opacity:0.15;fill:#000000" />
</svg>
