<svg xmlns="http://www.w3.org/2000/svg" width="24" height="24" fill="none" stroke="currentColor" stroke-linecap="round" stroke-linejoin="round" stroke-width="2" class="icon icon-tabler icons-tabler-outline icon-tabler-brand-pinterest" viewBox="0 0 24 24"><path stroke="none" d="M0 0h24v24H0Z" style="display:inline"/><path stroke="none" d="M12 2C6.489 2 2 6.489 2 12s4.489 10 10 10 10-4.489 10-10S17.511 2 12 2m0 2c4.43 0 8 3.57 8 8s-3.57 8-8 8a8 8 0 0 1-2.7-.463l1.557-3.504c.656.608 1.496.967 2.393.967 2.57 0 4.749-2.095 4.75-4.998.004-3.711-3.38-6.559-7.035-5.918-3.655.64-5.872 4.469-4.606 7.957a1 1 0 0 0 1.282.6 1 1 0 0 0 .6-1.282 3.98 3.98 0 0 1 3.068-5.304A3.98 3.98 0 0 1 16 11.998V12c0 1.988-1.18 3-2.75 3-.601 0-1.14-.306-1.48-1.02l1.144-2.574a1 1 0 0 0-.508-1.32 1 1 0 0 0-.765-.02 1 1 0 0 0-.555.528L7.514 18.63A7.98 7.98 0 0 1 4 12c0-4.43 3.57-8 8-8" style="baseline-shift:baseline;display:inline;overflow:visible;vector-effect:none;fill:#000;stroke:none;stroke-linecap:butt;stroke-linejoin:miter;stop-color:#000;stop-opacity:1;opacity:1;fill-opacity:.15000001"/></svg>