<svg xmlns="http://www.w3.org/2000/svg" width="24" height="24" fill="none" stroke="currentColor" stroke-linecap="round" stroke-linejoin="round" stroke-width="2" class="icon icon-tabler icons-tabler-outline icon-tabler-cube" viewBox="0 0 24 24"><path stroke="none" d="M0 0h24v24H0z"/><path stroke="none" d="M12 1c-.517 0-1.033.132-1.496.396l-7 4.008-.002.002a3 3 0 0 0-.94.848l-.001.002-.002.002a1 1 0 0 0-.155.203 1 1 0 0 0-.091.219l.005-.026A3 3 0 0 0 2 7.99v8.02c0 1.067.578 2.054 1.504 2.584l7 4.008c.424.242.892.37 1.365.39.02.001.038.006.057.006l-.03-.004A1 1 0 0 0 12 23a1 1 0 0 0 .104-.006l-.03.004c.02 0 .038-.005.057-.006.473-.02.941-.148 1.365-.39l7-4.008h.002A2.99 2.99 0 0 0 22 16.008v-8.02c0-.47-.113-.926-.318-1.334l.006.026a1 1 0 0 0-.092-.22 1 1 0 0 0-.153-.2l-.006-.006a3 3 0 0 0-.94-.85h-.003l-6.998-4.008A3 3 0 0 0 12 1m0 1.998c.174 0 .347.045.504.135l6.455 3.695L12 10.846 5.043 6.828l6.453-3.695c.157-.09.33-.135.504-.135m8.988 2.996a1 1 0 0 1 .24.1 1 1 0 0 0-.24-.1m-18.69.738-.017.084zm19.403 0 .018.084zM2.275 6.88l-.004.05zm19.45 0 .004.05zm-19.45.15.002.043zm19.45 0-.002.043zm-19.436.11.014.068zm19.422 0-.014.068zm-19.28.363.044.064zm19.137 0-.043.064zM4 8.537l7 4.04v8.005l-6.504-3.725A.97.97 0 0 1 4 16.01zm16 0v7.47a.98.98 0 0 1-.498.852L13 20.582v-8.006zm-8.861 13.967.037.058zm1.722 0-.037.058zm-1.558.21.05.048zm1.394 0-.05.048zm-1.29.089a1 1 0 0 0 .075.05 1 1 0 0 1-.076-.05m1.187 0a1 1 0 0 1-.076.05 1 1 0 0 0 .076-.05m-1.09.064a1 1 0 0 0 .094.047 1 1 0 0 1-.094-.047m.992 0a1 1 0 0 1-.094.047 1 1 0 0 0 .094-.047m-.865.06.068.026zm.738 0-.068.026zm-.598.046.053.01zm.458 0-.053.01z" style="baseline-shift:baseline;display:inline;overflow:visible;opacity:.15;vector-effect:none;fill:#000;stroke:none;stroke-linecap:butt;stroke-linejoin:miter;stop-color:#000;stop-opacity:1"/></svg>