<?xml version="1.0" encoding="UTF-8" standalone="no"?>
<svg
   width="24"
   height="24"
   viewBox="0 0 24 24"
   fill="none"
   stroke="currentColor"
   stroke-width="2"
   stroke-linecap="round"
   stroke-linejoin="round"
   class="icon icon-tabler icons-tabler-outline icon-tabler-cube"
   version="1.1"
   id="svg5"
   xmlns="http://www.w3.org/2000/svg"
   xmlns:svg="http://www.w3.org/2000/svg">
  <defs
     id="defs5" />
  <path
     d="M 12,2 A 2.016,2.016 0 0 0 11,2.265625 L 4,6.2734375 C 3.7011351,6.4448382 3.4569639,6.6852811 3.2851563,6.96875 3.1011211,7.2723933 3,7.6240702 3,7.9902344 v 8.0195316 c 0,0.709 0.381,1.362796 1,1.716796 l 7,4.007813 A 2.016,2.016 0 0 0 12,22 2.016,2.016 0 0 0 13,21.734375 l 7,-4.007813 c 0.619,-0.355 1,-1.01075 1,-1.71875 V 7.9902344 A 1.98,1.98 0 0 0 20.714844,6.96875 1.98,1.98 0 0 0 20,6.2734375 L 13,2.265625 A 2.016,2.016 0 0 0 12,2 Z"
     style="fill:#000000;stroke:#000000;opacity:0.15"
     id="path6" />
</svg>
