<svg xmlns="http://www.w3.org/2000/svg" viewBox="0 0 993 993"><title>OBS Studio</title><desc>Open-source screencasting and streaming software</desc><path d="M494.06 5.85C225.5 5.85 7.79 223.56 7.79 492.12S225.5 978.388 494.06 978.388s486.27-217.71 486.27-486.27S762.62 5.85 494.06 5.85m0 42.15c245.29 0 444.129 198.84 444.129 444.12 0 245.29-198.85 444.12-444.13 444.12S49.939 737.41 49.939 492.12C49.938 246.84 248.768 48 494.058 48" style="fill:#000;shape-rendering:geometricPrecision;opacity:.15;fill-opacity:1"/><path d="M684.91 370.5a199.24 199.24 0 0 1-277.24 70.456 202.8 202.8 0 0 1-44.913-37.773 198.92 198.92 0 0 1-49.898-141.13c.284-5.79.769-11.563 1.527-17.31a199 199 0 0 1 2.977-16.874q1.897-8.578 4.548-16.962 2.572-8.16 5.863-16.073c2.275-5.485 4.81-10.854 7.547-16.122 2.88-5.548 6.073-10.945 9.48-16.184q4.716-7.249 10.045-14.062c3.854-4.95 7.95-9.727 12.27-14.276q6.542-6.888 13.67-13.162c4.838-4.263 9.912-8.25 15.14-12.022q4.042-2.917 8.236-5.612a244.39 244.39 0 0 0-109.08 323.49q.82 1.704 1.668 3.395.384.768.774 1.534a4.6 4.6 0 0 0 .47.917c.324.359.405.299.9.29 2.578-.047 5.158-.035 7.736.02q7.144.155 14.266.815a199.58 199.58 0 0 1 178.16 166.37 201.3 201.3 0 0 1 .641 60.166 198.75 198.75 0 0 1-46.16 101.86 202.2 202.2 0 0 1-49.778 41.784 199.86 199.86 0 0 1-124.15 26.494 203 203 0 0 1-23.203-4.03 199 199 0 0 1-14.71-4.07 242.6 242.6 0 0 0 68.546 18.972 247 247 0 0 0 66.41-.798 243.5 243.5 0 0 0 108.67-44.887 246 246 0 0 0 59.733-63.074q1.042-1.587 2.058-3.19c.263-.415.85-1.069.774-1.509a8.5 8.5 0 0 0-1.05-1.945q-2.003-3.757-3.844-7.598-3.698-7.716-6.722-15.732a198 198 0 0 1-9.34-33.367 200.9 200.9 0 0 1 .04-73.98 197.9 197.9 0 0 1 21.357-59.255 199.08 199.08 0 0 1 173.09-103.06q7.337-.05 14.663.425 7.066.47 14.088 1.418 6.952.95 13.827 2.393 6.73 1.421 13.355 3.29 6.49 1.842 12.843 4.119 6.441 2.312 12.708 5.064 6.39 2.79 12.561 6.046 6.166 3.242 12.1 6.907a192 192 0 0 1 10.913 7.25q5.49 3.94 10.726 8.209c3.603 2.93 7.08 6.019 10.462 9.202q5.401 5.083 10.408 10.563 4.998 5.447 9.57 11.27c3.4 4.318 6.639 8.772 9.66 13.363a206 206 0 0 1 8.75 14.515 200 200 0 0 1 10.067 21.366 207 207 0 0 1 7.973 24.37 243.74 243.74 0 0 0-51.678-120.94 245.7 245.7 0 0 0-75.012-62.481 242.9 242.9 0 0 0-95.948-28.304q-4.267-.342-8.544-.534z" shape-rendering="geometricPrecision" style="fill:#000;fill-opacity:1;opacity:.15" transform="translate(-18 -20)"/></svg>