<svg xmlns="http://www.w3.org/2000/svg" xml:space="preserve" width="24" height="24" fill="#02020226" viewBox="-143 145 512 512"><path d="M145.605 453.263c-1.745.078-3.53.7-5.105 1.837-3.5 2.5-7.1 4.9-11 6.4-11.9 4.6-24.2 5.1-36.6 2.8-7.1-1.3-13.7-3.6-19.2-8.5-3.7-3.3-8.5-3.4-11.6-.1-3.1 3.4-2.9 8.3 1 11.6 3.3 2.7 6.8 5.2 10.6 7.1 10.2 5.2 21.2 6.8 32.6 7.4 6.7-1 13.4-1.5 20-2.9 9.2-1.9 17.7-5.6 24.8-12.1 3.3-3 3.5-7.8.5-11.1-1.575-1.744-3.752-2.539-5.995-2.438M70.4 393.9c-12-.2-21.6 9.1-21.8 21.1-.1 11.5 9.2 21.2 20.6 21.5 12 .2 21.9-9.2 22-21 .1-11.7-9.2-21.4-20.8-21.6m76-.1c-12.2-.3-22 9.1-22.2 21.1-.2 11.5 9.3 21.3 20.7 21.5 12.1.3 21.8-8.9 22-21 .2-11.5-9.1-21.3-20.5-21.6" style="fill:#02020226" transform="translate(-76.14 -283.66)scale(1.71259)"/><path d="M195.051 286.844c-8.751.281-16.926 4.781-21.951 12.656-1 1.5-1.8 1.7-3.5 1.3-9.1-2.3-18.3-4.4-27.4-6.6-6.7-1.6-13.4-3.2-20.2-4.8-.4 1-.7 1.8-1 2.6-6.4 18.2-12.9 36.4-19.2 54.6-.6 1.5-1.3 2.2-2.9 2.2-3.2.1-6.4.3-9.5.6-21.1 2.1-41.1 7.6-59.5 18.3-1.6.9-2.7.9-4.3-.1-15.4-9.9-36.1-5.1-45.3 10.7-2.3 4-3.3 8.7-4.9 13.1v7.7c.8 2.8 1.5 5.7 2.5 8.5 1.9 5.1 5.2 9.2 9.3 12.7.7.6 1.4 1.6 1.3 2.4-1.6 15.6 3 29.5 12.2 42 10.5 14.3 24.6 24.1 40.6 31.2 23.9 10.7 49.1 14.6 75.2 13.1 22.7-1.3 44.4-6.6 64.4-17.6 14.7-8.1 27.2-18.5 35.8-33.2 6.3-10.8 8.9-22.4 7.9-34.9-.1-.7.1-1.8.6-2.2 6.9-5.6 11.1-12.6 12.5-21.4 0-.2.2-.5.3-.7 0-2.8 0-5.5.3-8-.2-.3-.4-.7-.5-1.1-4.4-23.6-30.2-34.8-50.3-21.8-1.4.9-2.3.8-3.6 0-15.1-8.8-31.3-14.3-48.5-17.1-5.8-.9-11.6-1.5-17.6-2.3 4.8-13.6 9.5-27.1 14.3-40.7 11.2 2.6 22 5.3 32.9 7.7 3 .7 4.1 1.9 4.7 4.8 2.9 13.5 16 22.4 30.2 20.7 13-1.5 23.4-13.3 23.5-26.6 0-12.3-7.9-23.1-19.5-26.6a28 28 0 0 0-8.849-1.156m.849 15.456c6.4.1 11.5 5.2 11.5 11.6s-5.1 11.7-11.5 11.7-11.8-5.3-11.7-11.8c.1-6.4 5.3-11.5 11.7-11.5m-95.18 61.814a172 172 0 0 1 17.58.386c19.9 1.4 38.9 6.2 56.4 16 9.7 5.4 18.4 12.2 25 21.2 12.9 17.9 12.5 38.3-1.2 55.6-9.3 11.8-21.6 19.6-35.2 25.3-18.2 7.7-37.3 10.9-59.6 10.9-21.2-.1-44-4.6-65.1-16.2-9.9-5.5-18.7-12.4-25.4-21.6C.3 438 .8 417.3 14.5 400.1c9.4-11.7 21.6-19.5 35.3-25.2 16.425-6.9 33.468-10.257 50.92-10.786M7.311 378.023c2.077-.08 4.152.264 6.089 1.077-8.1 7.1-14.8 15.2-19.5 24.8-4-5.9-3.5-14.2 1.1-19.7 3.163-3.781 7.743-6.003 12.311-6.177m197.638.024c5.095-.178 10.401 2.203 13.851 6.553 4.4 5.7 4.8 13.9.8 19.4-3-4.3-5.7-8.9-8.9-13.1-3.3-4.1-7.1-7.8-10.7-11.8 1.575-.65 3.25-.993 4.949-1.053" style="fill:#02020226" transform="translate(-76.14 -283.66)scale(1.71259)"/></svg>