<svg xmlns="http://www.w3.org/2000/svg" xml:space="preserve" width="24" height="24" viewBox="0 0 24 24"><path fill="#fff" d="M19.822 7.987c.011.174.011.347.011.522 0 5.333-4.06 11.483-11.482 11.483v-.003a11.4 11.4 0 0 1-6.186-1.81q.479.058.96.059a8.1 8.1 0 0 0 5.012-1.731 4.04 4.04 0 0 1-3.77-2.803 4 4 0 0 0 1.822-.07A4.036 4.036 0 0 1 2.952 9.68v-.051a4 4 0 0 0 1.831.505 4.04 4.04 0 0 1-1.249-5.389 11.45 11.45 0 0 0 8.318 4.217 4.04 4.04 0 0 1 1.167-3.856 4.04 4.04 0 0 1 5.71.175 8.1 8.1 0 0 0 2.563-.98 4.05 4.05 0 0 1-1.774 2.232 8 8 0 0 0 2.317-.635 8.2 8.2 0 0 1-2.013 2.09" style="stroke-width:.0799132"/></svg>